<?xml version="1.0" encoding="UTF-8" standalone="no"?>
<svg
   width="68.511574"
   height="27.708624"
   fill="none"
   version="1.1"
   id="svg2"
   xmlns="http://www.w3.org/2000/svg"
   xmlns:svg="http://www.w3.org/2000/svg">
  <defs
     id="defs2" />
  <g
     id="g12"
     transform="translate(-40.787788,-37.987029)">
    <path
       id="path10"
       style="fill:#404145;fill-opacity:1"
       d="m 67.60014,46.496433 c -6.499993,0 -9.101562,5.098442 -9.101562,9.398438 0,4.399995 3.000006,9.5 9.5,9.5 3.899996,0 7.100392,-1.899613 8.40039,-5.09961 l -5.298828,-1.5 c -0.399999,1.099999 -1.501564,1.800782 -3.101562,1.800782 -2.099998,0 -3.399219,-1.101174 -3.699219,-3.201172 H 76.69975 c 0.1,-0.4 0.09961,-0.898829 0.09961,-1.798828 0,-3.899996 -2.299226,-9.09961 -9.19922,-9.09961 z m 0.09961,4.398438 c 1.999998,0 3.198828,1.400001 3.298828,3 h -6.699219 c 0.4,-2.199998 1.500393,-3 3.400391,-3 z" />
    <path
       d="m 101.89936,51.795652 h -3.100001 c -2,0 -3.1,1.5 -3.1,4.1 v 9.3 h -6 v -13.4 h -2.5 c -2,0 -3.1,1.5 -3.1,4.1 v 9.3 h -6 v -18.4 h 6 v 2.8 c 1,-2.2 2.3,-2.8 4.3,-2.8 h 7.3 v 2.8 c 1,-2.2 2.3,-2.8 4.3,-2.8 h 2.000001 z"
       id="path11"
       style="fill:#404145;fill-opacity:1" />
    <path
       fill="#1dbf73"
       d="m 105.59936,65.695652 c 2,0 3.7,-1.7 3.7,-3.7 0,-2 -1.7,-3.7 -3.7,-3.7 -2,0 -3.7,1.7 -3.7,3.7 0,2 1.7,3.7 3.7,3.7 z"
       id="path12" />
    <text
       xml:space="preserve"
       style="font-size:58.5574px;fill:#404145;fill-opacity:1;stroke-width:4.87978"
       x="36.44173"
       y="64.692406"
       id="text12"><tspan
         id="tspan12"
         x="36.44173"
         y="64.692406"
         style="font-style:normal;font-variant:normal;font-weight:normal;font-stretch:normal;font-family:Aharoni;-inkscape-font-specification:Aharoni;stroke-width:4.87978">5</tspan></text>
  </g>
</svg>
