<?xml version="1.0" encoding="UTF-8" standalone="no"?>

<svg
   version="1.1"
   id="svg1"
   width="546.01849"
   height="546.00665"
   viewBox="0 0 546.01849 546.00665"
   xmlns="http://www.w3.org/2000/svg"
   xmlns:svg="http://www.w3.org/2000/svg">
  <defs
     id="defs1" />
  <g
     id="g1"
     transform="translate(-1.1861149,0.85773611)">
    <path
       style="fill:#FFFFFF"
       d="M 249.14455,543.99863 C 208.0216,540.07771 166.88272,526.37033 131.9342,504.9444 96.79531,483.40177 62.94506,449.55152 41.40243,414.41263 11.287912,365.29186 -2.944648,305.26717 2.229122,249.20229 8.324392,183.15162 34.984032,126.17981 81.61971,79.544118 128.2554,32.908428 185.22721,6.248789 251.27788,0.15352 c 25.33817,-2.33825 32.43015,-0.95319 39.29071,7.67345 5.285,6.645498 5.05329,17.721168 -0.51893,24.805108 -4.40774,5.60352 -9.36718,7.06741 -27.43617,8.09838 -34.2256,1.95282 -60.42734,8.74941 -90.26894,23.4153 C 102.38026,98.530248 54.68354,164.87629 44.29028,242.26896 c -0.82724,6.16 -1.50407,19.59999 -1.50407,29.86666 0,37.68582 7.2187,69.11407 23.39759,101.86666 34.64183,70.12905 100.77366,117.66177 178.16075,128.05427 6.16,0.82724 19.59999,1.50408 29.86666,1.50408 37.68582,0 69.11407,-7.21871 101.86666,-23.39759 46.74619,-23.09134 83.23922,-59.59729 106.1232,-106.16076 14.66588,-29.8416 21.46248,-56.04334 23.4153,-90.26894 1.03097,-18.06899 2.49485,-23.02843 8.09838,-27.43616 7.08394,-5.57223 18.15961,-5.80394 24.8051,-0.51894 8.62665,6.86056 10.01171,13.95255 7.67346,39.29071 -3.98643,43.19839 -17.23392,83.55762 -39.17332,119.34368 -21.54263,35.13889 -55.39288,68.98914 -90.53177,90.53177 -49.56616,30.38758 -110.09208,44.51296 -167.34367,39.05423 z m -2.19606,-175.74298 c -4.73248,-2.14954 -8.44297,-6.02373 -72.46311,-75.66025 -21.70254,-23.60647 -40.35452,-44.66608 -41.44884,-46.79913 -1.47764,-2.88022 -1.87566,-5.45447 -1.54665,-10.00309 0.76598,-10.58953 7.67041,-17.74181 18.08417,-18.73335 10.25341,-0.97628 10.74204,-0.5441 60.63291,53.62787 l 45.3291,49.21873 124.48709,-124.09857 c 68.4679,-68.25422 126.05857,-124.911222 127.97926,-125.904452 1.96552,-1.01641 5.91316,-1.80588 9.03008,-1.80588 14.30943,0 24.19964,14.15692 19.14204,27.40006 -1.49362,3.911 -24.07565,26.916392 -135.15115,137.684902 -97.73896,97.46884 -134.54925,133.53023 -137.81837,135.01447 -5.62175,2.55238 -10.72578,2.5708 -16.25653,0.0587 z"
       id="path1" />
  </g>
</svg>
